<mxfile host="app.diagrams.net" modified="2021-11-17T01:45:08.728Z" agent="5.0 (Windows)" etag="O9o-lVB1TutNC1cRuXXs" version="15.5.6" type="github" pages="2">
  <diagram id="C5RBs43oDa-KdzZeNtuy" name="Page-1">
    <mxGraphModel dx="981" dy="516" grid="1" gridSize="10" guides="1" tooltips="1" connect="1" arrows="1" fold="1" page="1" pageScale="1" pageWidth="827" pageHeight="1169" background="none" math="0" shadow="1">
      <root>
        <mxCell id="WIyWlLk6GJQsqaUBKTNV-0" />
        <mxCell id="WIyWlLk6GJQsqaUBKTNV-1" parent="WIyWlLk6GJQsqaUBKTNV-0" />
        <mxCell id="zkfFHV4jXpPFQw0GAbJ--0" value="IPickNodeReferenceAction" style="swimlane;fontStyle=3;align=center;verticalAlign=top;childLayout=stackLayout;horizontal=1;startSize=26;horizontalStack=0;resizeParent=1;resizeLast=0;collapsible=1;marginBottom=0;rounded=0;shadow=0;strokeWidth=1;" parent="WIyWlLk6GJQsqaUBKTNV-1" vertex="1" collapsed="1">
          <mxGeometry x="180" y="120" width="200" height="26" as="geometry">
            <mxRectangle x="220" y="120" width="160" height="138" as="alternateBounds" />
          </mxGeometry>
        </mxCell>
        <mxCell id="zkfFHV4jXpPFQw0GAbJ--1" value="Name" style="text;align=left;verticalAlign=top;spacingLeft=4;spacingRight=4;overflow=hidden;rotatable=0;points=[[0,0.5],[1,0.5]];portConstraint=eastwest;" parent="zkfFHV4jXpPFQw0GAbJ--0" vertex="1">
          <mxGeometry y="26" width="200" height="26" as="geometry" />
        </mxCell>
        <mxCell id="zkfFHV4jXpPFQw0GAbJ--4" value="" style="line;html=1;strokeWidth=1;align=left;verticalAlign=middle;spacingTop=-1;spacingLeft=3;spacingRight=3;rotatable=0;labelPosition=right;points=[];portConstraint=eastwest;" parent="zkfFHV4jXpPFQw0GAbJ--0" vertex="1">
          <mxGeometry y="52" width="200" height="8" as="geometry" />
        </mxCell>
        <mxCell id="zkfFHV4jXpPFQw0GAbJ--5" value="Purchase Parking Pass" style="text;align=left;verticalAlign=top;spacingLeft=4;spacingRight=4;overflow=hidden;rotatable=0;points=[[0,0.5],[1,0.5]];portConstraint=eastwest;" parent="zkfFHV4jXpPFQw0GAbJ--0" vertex="1">
          <mxGeometry y="60" width="200" height="26" as="geometry" />
        </mxCell>
        <mxCell id="zkfFHV4jXpPFQw0GAbJ--6" value="BmCommonPickNodeReferenceAction" style="swimlane;fontStyle=1;align=center;verticalAlign=top;childLayout=stackLayout;horizontal=1;startSize=26;horizontalStack=0;resizeParent=1;resizeLast=0;collapsible=1;marginBottom=0;rounded=0;shadow=0;strokeWidth=1;" parent="WIyWlLk6GJQsqaUBKTNV-1" vertex="1">
          <mxGeometry x="80" y="180" width="400" height="138" as="geometry">
            <mxRectangle x="200" y="220" width="200" height="26" as="alternateBounds" />
          </mxGeometry>
        </mxCell>
        <mxCell id="zkfFHV4jXpPFQw0GAbJ--7" value="- m_opPickPostEventHandler : CommonEditPickPostProcessEventHandler" style="text;align=left;verticalAlign=top;spacingLeft=4;spacingRight=4;overflow=hidden;rotatable=0;points=[[0,0.5],[1,0.5]];portConstraint=eastwest;" parent="zkfFHV4jXpPFQw0GAbJ--6" vertex="1">
          <mxGeometry y="26" width="400" height="26" as="geometry" />
        </mxCell>
        <mxCell id="J0oaYAPU_-L1v4bQVUA5-4" value="- m_vPickedGNodeRef : GraphicsNodeReferenceOwnerPtrVector" style="text;align=left;verticalAlign=top;spacingLeft=4;spacingRight=4;overflow=hidden;rotatable=0;points=[[0,0.5],[1,0.5]];portConstraint=eastwest;" vertex="1" parent="zkfFHV4jXpPFQw0GAbJ--6">
          <mxGeometry y="52" width="400" height="26" as="geometry" />
        </mxCell>
        <mxCell id="zkfFHV4jXpPFQw0GAbJ--9" value="" style="line;html=1;strokeWidth=1;align=left;verticalAlign=middle;spacingTop=-1;spacingLeft=3;spacingRight=3;rotatable=0;labelPosition=right;points=[];portConstraint=eastwest;" parent="zkfFHV4jXpPFQw0GAbJ--6" vertex="1">
          <mxGeometry y="78" width="400" height="8" as="geometry" />
        </mxCell>
        <mxCell id="zkfFHV4jXpPFQw0GAbJ--10" value="+ Create() : bool" style="text;align=left;verticalAlign=top;spacingLeft=4;spacingRight=4;overflow=hidden;rotatable=0;points=[[0,0.5],[1,0.5]];portConstraint=eastwest;fontStyle=4" parent="zkfFHV4jXpPFQw0GAbJ--6" vertex="1">
          <mxGeometry y="86" width="400" height="26" as="geometry" />
        </mxCell>
        <mxCell id="Ch3S9O3G6ZBDTfe2Ftq7-0" value="+ RigisterProcessor() : " style="text;align=left;verticalAlign=top;spacingLeft=4;spacingRight=4;overflow=hidden;rotatable=0;points=[[0,0.5],[1,0.5]];portConstraint=eastwest;fontStyle=4" vertex="1" parent="zkfFHV4jXpPFQw0GAbJ--6">
          <mxGeometry y="112" width="400" height="26" as="geometry" />
        </mxCell>
        <mxCell id="zkfFHV4jXpPFQw0GAbJ--13" value="IPickPostProcessor" style="swimlane;fontStyle=3;align=center;verticalAlign=top;childLayout=stackLayout;horizontal=1;startSize=26;horizontalStack=0;resizeParent=1;resizeLast=0;collapsible=1;marginBottom=0;rounded=0;shadow=0;strokeWidth=1;" parent="WIyWlLk6GJQsqaUBKTNV-1" vertex="1" collapsed="1">
          <mxGeometry x="140" y="460" width="170" height="26" as="geometry">
            <mxRectangle x="330" y="360" width="160" height="70" as="alternateBounds" />
          </mxGeometry>
        </mxCell>
        <mxCell id="zkfFHV4jXpPFQw0GAbJ--14" value="Salary" style="text;align=left;verticalAlign=top;spacingLeft=4;spacingRight=4;overflow=hidden;rotatable=0;points=[[0,0.5],[1,0.5]];portConstraint=eastwest;" parent="zkfFHV4jXpPFQw0GAbJ--13" vertex="1">
          <mxGeometry y="26" width="170" height="26" as="geometry" />
        </mxCell>
        <mxCell id="zkfFHV4jXpPFQw0GAbJ--15" value="" style="line;html=1;strokeWidth=1;align=left;verticalAlign=middle;spacingTop=-1;spacingLeft=3;spacingRight=3;rotatable=0;labelPosition=right;points=[];portConstraint=eastwest;" parent="zkfFHV4jXpPFQw0GAbJ--13" vertex="1">
          <mxGeometry y="52" width="170" height="8" as="geometry" />
        </mxCell>
        <mxCell id="zkfFHV4jXpPFQw0GAbJ--17" value="IPickPostProcessManager" style="swimlane;fontStyle=3;align=center;verticalAlign=top;childLayout=stackLayout;horizontal=1;startSize=26;horizontalStack=0;resizeParent=1;resizeLast=0;collapsible=1;marginBottom=0;rounded=0;shadow=0;strokeWidth=1;" parent="WIyWlLk6GJQsqaUBKTNV-1" vertex="1" collapsed="1">
          <mxGeometry x="400" y="408" width="260" height="26" as="geometry">
            <mxRectangle x="570" y="310" width="160" height="216" as="alternateBounds" />
          </mxGeometry>
        </mxCell>
        <mxCell id="zkfFHV4jXpPFQw0GAbJ--18" value="Street" style="text;align=left;verticalAlign=top;spacingLeft=4;spacingRight=4;overflow=hidden;rotatable=0;points=[[0,0.5],[1,0.5]];portConstraint=eastwest;" parent="zkfFHV4jXpPFQw0GAbJ--17" vertex="1">
          <mxGeometry y="26" width="260" height="26" as="geometry" />
        </mxCell>
        <mxCell id="zkfFHV4jXpPFQw0GAbJ--22" value="Country" style="text;align=left;verticalAlign=top;spacingLeft=4;spacingRight=4;overflow=hidden;rotatable=0;points=[[0,0.5],[1,0.5]];portConstraint=eastwest;rounded=0;shadow=0;html=0;" parent="zkfFHV4jXpPFQw0GAbJ--17" vertex="1">
          <mxGeometry y="52" width="260" height="26" as="geometry" />
        </mxCell>
        <mxCell id="zkfFHV4jXpPFQw0GAbJ--23" value="" style="line;html=1;strokeWidth=1;align=left;verticalAlign=middle;spacingTop=-1;spacingLeft=3;spacingRight=3;rotatable=0;labelPosition=right;points=[];portConstraint=eastwest;" parent="zkfFHV4jXpPFQw0GAbJ--17" vertex="1">
          <mxGeometry y="78" width="260" height="8" as="geometry" />
        </mxCell>
        <mxCell id="zkfFHV4jXpPFQw0GAbJ--24" value="Validate" style="text;align=left;verticalAlign=top;spacingLeft=4;spacingRight=4;overflow=hidden;rotatable=0;points=[[0,0.5],[1,0.5]];portConstraint=eastwest;" parent="zkfFHV4jXpPFQw0GAbJ--17" vertex="1">
          <mxGeometry y="86" width="260" height="26" as="geometry" />
        </mxCell>
        <mxCell id="zkfFHV4jXpPFQw0GAbJ--25" value="Output As Label" style="text;align=left;verticalAlign=top;spacingLeft=4;spacingRight=4;overflow=hidden;rotatable=0;points=[[0,0.5],[1,0.5]];portConstraint=eastwest;" parent="zkfFHV4jXpPFQw0GAbJ--17" vertex="1">
          <mxGeometry y="112" width="260" height="26" as="geometry" />
        </mxCell>
        <mxCell id="OOC9lpMJYUZbqOaw8XCj-0" value="" style="endArrow=block;dashed=1;endFill=0;endSize=12;html=1;rounded=0;entryX=0.5;entryY=1;entryDx=0;entryDy=0;exitX=0.5;exitY=0;exitDx=0;exitDy=0;" edge="1" parent="WIyWlLk6GJQsqaUBKTNV-1" source="zkfFHV4jXpPFQw0GAbJ--6" target="zkfFHV4jXpPFQw0GAbJ--0">
          <mxGeometry width="160" relative="1" as="geometry">
            <mxPoint x="70" y="180" as="sourcePoint" />
            <mxPoint x="230" y="180" as="targetPoint" />
          </mxGeometry>
        </mxCell>
        <mxCell id="OOC9lpMJYUZbqOaw8XCj-1" value="IPickEventHandler" style="swimlane;fontStyle=3;align=center;verticalAlign=top;childLayout=stackLayout;horizontal=1;startSize=26;horizontalStack=0;resizeParent=1;resizeParentMax=0;resizeLast=0;collapsible=1;marginBottom=0;" vertex="1" collapsed="1" parent="WIyWlLk6GJQsqaUBKTNV-1">
          <mxGeometry x="155" y="330" width="140" height="26" as="geometry">
            <mxRectangle x="180" y="450" width="160" height="86" as="alternateBounds" />
          </mxGeometry>
        </mxCell>
        <mxCell id="OOC9lpMJYUZbqOaw8XCj-2" value="+ field: type" style="text;strokeColor=none;fillColor=none;align=left;verticalAlign=top;spacingLeft=4;spacingRight=4;overflow=hidden;rotatable=0;points=[[0,0.5],[1,0.5]];portConstraint=eastwest;" vertex="1" parent="OOC9lpMJYUZbqOaw8XCj-1">
          <mxGeometry y="26" width="140" height="26" as="geometry" />
        </mxCell>
        <mxCell id="OOC9lpMJYUZbqOaw8XCj-3" value="" style="line;strokeWidth=1;fillColor=none;align=left;verticalAlign=middle;spacingTop=-1;spacingLeft=3;spacingRight=3;rotatable=0;labelPosition=right;points=[];portConstraint=eastwest;" vertex="1" parent="OOC9lpMJYUZbqOaw8XCj-1">
          <mxGeometry y="52" width="140" height="8" as="geometry" />
        </mxCell>
        <mxCell id="OOC9lpMJYUZbqOaw8XCj-4" value="+ method(type): type" style="text;strokeColor=none;fillColor=none;align=left;verticalAlign=top;spacingLeft=4;spacingRight=4;overflow=hidden;rotatable=0;points=[[0,0.5],[1,0.5]];portConstraint=eastwest;" vertex="1" parent="OOC9lpMJYUZbqOaw8XCj-1">
          <mxGeometry y="60" width="140" height="26" as="geometry" />
        </mxCell>
        <mxCell id="OOC9lpMJYUZbqOaw8XCj-5" value="BmCommonPickPostProcessEventHandler" style="swimlane;fontStyle=1;align=center;verticalAlign=top;childLayout=stackLayout;horizontal=1;startSize=26;horizontalStack=0;resizeParent=1;resizeLast=0;collapsible=1;marginBottom=0;rounded=0;shadow=0;strokeWidth=1;" vertex="1" parent="WIyWlLk6GJQsqaUBKTNV-1">
          <mxGeometry x="80" y="380" width="290" height="54" as="geometry">
            <mxRectangle x="570" y="206" width="290" height="26" as="alternateBounds" />
          </mxGeometry>
        </mxCell>
        <mxCell id="OOC9lpMJYUZbqOaw8XCj-6" value="+ On(IPickEventArgs* pArgs) : void" style="text;align=left;verticalAlign=top;spacingLeft=4;spacingRight=4;overflow=hidden;rotatable=0;points=[[0,0.5],[1,0.5]];portConstraint=eastwest;" vertex="1" parent="OOC9lpMJYUZbqOaw8XCj-5">
          <mxGeometry y="26" width="290" height="26" as="geometry" />
        </mxCell>
        <mxCell id="OOC9lpMJYUZbqOaw8XCj-11" value="" style="endArrow=block;dashed=1;endFill=0;endSize=12;html=1;rounded=0;entryX=0.5;entryY=1;entryDx=0;entryDy=0;exitX=0.5;exitY=0;exitDx=0;exitDy=0;" edge="1" parent="WIyWlLk6GJQsqaUBKTNV-1" source="OOC9lpMJYUZbqOaw8XCj-5" target="OOC9lpMJYUZbqOaw8XCj-1">
          <mxGeometry width="160" relative="1" as="geometry">
            <mxPoint x="1" y="340" as="sourcePoint" />
            <mxPoint x="161" y="340" as="targetPoint" />
          </mxGeometry>
        </mxCell>
        <mxCell id="OOC9lpMJYUZbqOaw8XCj-12" value="OpeningPickPostProcessor" style="swimlane;fontStyle=1;align=center;verticalAlign=top;childLayout=stackLayout;horizontal=1;startSize=26;horizontalStack=0;resizeParent=1;resizeLast=0;collapsible=1;marginBottom=0;rounded=0;shadow=0;strokeWidth=1;" vertex="1" collapsed="1" parent="WIyWlLk6GJQsqaUBKTNV-1">
          <mxGeometry x="120" y="530" width="210" height="26" as="geometry">
            <mxRectangle x="330" y="360" width="160" height="70" as="alternateBounds" />
          </mxGeometry>
        </mxCell>
        <mxCell id="OOC9lpMJYUZbqOaw8XCj-13" value="Salary" style="text;align=left;verticalAlign=top;spacingLeft=4;spacingRight=4;overflow=hidden;rotatable=0;points=[[0,0.5],[1,0.5]];portConstraint=eastwest;" vertex="1" parent="OOC9lpMJYUZbqOaw8XCj-12">
          <mxGeometry y="26" width="210" height="26" as="geometry" />
        </mxCell>
        <mxCell id="OOC9lpMJYUZbqOaw8XCj-14" value="" style="line;html=1;strokeWidth=1;align=left;verticalAlign=middle;spacingTop=-1;spacingLeft=3;spacingRight=3;rotatable=0;labelPosition=right;points=[];portConstraint=eastwest;" vertex="1" parent="OOC9lpMJYUZbqOaw8XCj-12">
          <mxGeometry y="52" width="210" height="8" as="geometry" />
        </mxCell>
        <mxCell id="OOC9lpMJYUZbqOaw8XCj-15" value="PolycurvePickPostProcessor" style="swimlane;fontStyle=1;align=center;verticalAlign=top;childLayout=stackLayout;horizontal=1;startSize=26;horizontalStack=0;resizeParent=1;resizeLast=0;collapsible=1;marginBottom=0;rounded=0;shadow=0;strokeWidth=1;" vertex="1" collapsed="1" parent="WIyWlLk6GJQsqaUBKTNV-1">
          <mxGeometry x="120" y="680" width="210" height="26" as="geometry">
            <mxRectangle x="330" y="360" width="160" height="70" as="alternateBounds" />
          </mxGeometry>
        </mxCell>
        <mxCell id="OOC9lpMJYUZbqOaw8XCj-16" value="Salary" style="text;align=left;verticalAlign=top;spacingLeft=4;spacingRight=4;overflow=hidden;rotatable=0;points=[[0,0.5],[1,0.5]];portConstraint=eastwest;" vertex="1" parent="OOC9lpMJYUZbqOaw8XCj-15">
          <mxGeometry y="26" width="210" height="26" as="geometry" />
        </mxCell>
        <mxCell id="OOC9lpMJYUZbqOaw8XCj-17" value="" style="line;html=1;strokeWidth=1;align=left;verticalAlign=middle;spacingTop=-1;spacingLeft=3;spacingRight=3;rotatable=0;labelPosition=right;points=[];portConstraint=eastwest;" vertex="1" parent="OOC9lpMJYUZbqOaw8XCj-15">
          <mxGeometry y="52" width="210" height="8" as="geometry" />
        </mxCell>
        <mxCell id="OOC9lpMJYUZbqOaw8XCj-18" value="CadCurvePickPostProcessor" style="swimlane;fontStyle=1;align=center;verticalAlign=top;childLayout=stackLayout;horizontal=1;startSize=26;horizontalStack=0;resizeParent=1;resizeLast=0;collapsible=1;marginBottom=0;rounded=0;shadow=0;strokeWidth=1;" vertex="1" collapsed="1" parent="WIyWlLk6GJQsqaUBKTNV-1">
          <mxGeometry x="120" y="570" width="210" height="26" as="geometry">
            <mxRectangle x="330" y="360" width="160" height="70" as="alternateBounds" />
          </mxGeometry>
        </mxCell>
        <mxCell id="OOC9lpMJYUZbqOaw8XCj-19" value="Salary" style="text;align=left;verticalAlign=top;spacingLeft=4;spacingRight=4;overflow=hidden;rotatable=0;points=[[0,0.5],[1,0.5]];portConstraint=eastwest;" vertex="1" parent="OOC9lpMJYUZbqOaw8XCj-18">
          <mxGeometry y="26" width="210" height="26" as="geometry" />
        </mxCell>
        <mxCell id="OOC9lpMJYUZbqOaw8XCj-20" value="" style="line;html=1;strokeWidth=1;align=left;verticalAlign=middle;spacingTop=-1;spacingLeft=3;spacingRight=3;rotatable=0;labelPosition=right;points=[];portConstraint=eastwest;" vertex="1" parent="OOC9lpMJYUZbqOaw8XCj-18">
          <mxGeometry y="52" width="210" height="8" as="geometry" />
        </mxCell>
        <mxCell id="OOC9lpMJYUZbqOaw8XCj-21" value="" style="endArrow=block;dashed=1;endFill=0;endSize=12;html=1;rounded=0;entryX=0.5;entryY=1;entryDx=0;entryDy=0;exitX=0.5;exitY=0;exitDx=0;exitDy=0;" edge="1" parent="WIyWlLk6GJQsqaUBKTNV-1" source="OOC9lpMJYUZbqOaw8XCj-12" target="zkfFHV4jXpPFQw0GAbJ--13">
          <mxGeometry width="160" relative="1" as="geometry">
            <mxPoint x="-40" y="520" as="sourcePoint" />
            <mxPoint x="120" y="520" as="targetPoint" />
          </mxGeometry>
        </mxCell>
        <mxCell id="OOC9lpMJYUZbqOaw8XCj-22" value="" style="endArrow=block;dashed=1;endFill=0;endSize=12;html=1;rounded=0;exitX=0;exitY=0.5;exitDx=0;exitDy=0;entryX=0.5;entryY=1;entryDx=0;entryDy=0;" edge="1" parent="WIyWlLk6GJQsqaUBKTNV-1" source="OOC9lpMJYUZbqOaw8XCj-15" target="zkfFHV4jXpPFQw0GAbJ--13">
          <mxGeometry width="160" relative="1" as="geometry">
            <mxPoint x="-40" y="550" as="sourcePoint" />
            <mxPoint x="120" y="550" as="targetPoint" />
            <Array as="points">
              <mxPoint x="100" y="593" />
              <mxPoint x="100" y="514" />
              <mxPoint x="225" y="514" />
            </Array>
          </mxGeometry>
        </mxCell>
        <mxCell id="OOC9lpMJYUZbqOaw8XCj-23" value="" style="endArrow=block;dashed=1;endFill=0;endSize=12;html=1;rounded=0;entryX=0.5;entryY=1;entryDx=0;entryDy=0;exitX=0;exitY=0.5;exitDx=0;exitDy=0;" edge="1" parent="WIyWlLk6GJQsqaUBKTNV-1" source="OOC9lpMJYUZbqOaw8XCj-18" target="zkfFHV4jXpPFQw0GAbJ--13">
          <mxGeometry width="160" relative="1" as="geometry">
            <mxPoint x="-110" y="530" as="sourcePoint" />
            <mxPoint x="230" y="490" as="targetPoint" />
            <Array as="points">
              <mxPoint x="100" y="583" />
              <mxPoint x="100" y="514" />
              <mxPoint x="225" y="514" />
            </Array>
          </mxGeometry>
        </mxCell>
        <mxCell id="OOC9lpMJYUZbqOaw8XCj-24" value="BmCommonPickPostProcessManager" style="swimlane;fontStyle=1;align=center;verticalAlign=top;childLayout=stackLayout;horizontal=1;startSize=26;horizontalStack=0;resizeParent=1;resizeLast=0;collapsible=1;marginBottom=0;rounded=0;shadow=0;strokeWidth=1;" vertex="1" collapsed="1" parent="WIyWlLk6GJQsqaUBKTNV-1">
          <mxGeometry x="400" y="460" width="260" height="26" as="geometry">
            <mxRectangle x="570" y="310" width="160" height="216" as="alternateBounds" />
          </mxGeometry>
        </mxCell>
        <mxCell id="OOC9lpMJYUZbqOaw8XCj-25" value="Street" style="text;align=left;verticalAlign=top;spacingLeft=4;spacingRight=4;overflow=hidden;rotatable=0;points=[[0,0.5],[1,0.5]];portConstraint=eastwest;" vertex="1" parent="OOC9lpMJYUZbqOaw8XCj-24">
          <mxGeometry y="26" width="260" height="26" as="geometry" />
        </mxCell>
        <mxCell id="OOC9lpMJYUZbqOaw8XCj-26" value="Country" style="text;align=left;verticalAlign=top;spacingLeft=4;spacingRight=4;overflow=hidden;rotatable=0;points=[[0,0.5],[1,0.5]];portConstraint=eastwest;rounded=0;shadow=0;html=0;" vertex="1" parent="OOC9lpMJYUZbqOaw8XCj-24">
          <mxGeometry y="52" width="260" height="26" as="geometry" />
        </mxCell>
        <mxCell id="OOC9lpMJYUZbqOaw8XCj-27" value="" style="line;html=1;strokeWidth=1;align=left;verticalAlign=middle;spacingTop=-1;spacingLeft=3;spacingRight=3;rotatable=0;labelPosition=right;points=[];portConstraint=eastwest;" vertex="1" parent="OOC9lpMJYUZbqOaw8XCj-24">
          <mxGeometry y="78" width="260" height="8" as="geometry" />
        </mxCell>
        <mxCell id="OOC9lpMJYUZbqOaw8XCj-28" value="Validate" style="text;align=left;verticalAlign=top;spacingLeft=4;spacingRight=4;overflow=hidden;rotatable=0;points=[[0,0.5],[1,0.5]];portConstraint=eastwest;" vertex="1" parent="OOC9lpMJYUZbqOaw8XCj-24">
          <mxGeometry y="86" width="260" height="26" as="geometry" />
        </mxCell>
        <mxCell id="OOC9lpMJYUZbqOaw8XCj-29" value="Output As Label" style="text;align=left;verticalAlign=top;spacingLeft=4;spacingRight=4;overflow=hidden;rotatable=0;points=[[0,0.5],[1,0.5]];portConstraint=eastwest;" vertex="1" parent="OOC9lpMJYUZbqOaw8XCj-24">
          <mxGeometry y="112" width="260" height="26" as="geometry" />
        </mxCell>
        <mxCell id="OOC9lpMJYUZbqOaw8XCj-31" value="" style="endArrow=block;dashed=1;endFill=0;endSize=12;html=1;rounded=0;entryX=0.5;entryY=1;entryDx=0;entryDy=0;exitX=0.5;exitY=0;exitDx=0;exitDy=0;" edge="1" parent="WIyWlLk6GJQsqaUBKTNV-1" source="OOC9lpMJYUZbqOaw8XCj-24" target="zkfFHV4jXpPFQw0GAbJ--17">
          <mxGeometry width="160" relative="1" as="geometry">
            <mxPoint x="480" y="550" as="sourcePoint" />
            <mxPoint x="640" y="550" as="targetPoint" />
          </mxGeometry>
        </mxCell>
        <mxCell id="OOC9lpMJYUZbqOaw8XCj-33" value="" style="endArrow=open;endFill=1;endSize=12;html=1;rounded=0;entryX=0;entryY=0.5;entryDx=0;entryDy=0;" edge="1" parent="WIyWlLk6GJQsqaUBKTNV-1" target="zkfFHV4jXpPFQw0GAbJ--17">
          <mxGeometry width="160" relative="1" as="geometry">
            <mxPoint x="370" y="421" as="sourcePoint" />
            <mxPoint x="260" y="454" as="targetPoint" />
          </mxGeometry>
        </mxCell>
        <mxCell id="OOC9lpMJYUZbqOaw8XCj-36" value="n" style="endArrow=open;html=1;endSize=12;startArrow=diamondThin;startSize=14;startFill=0;edgeStyle=orthogonalEdgeStyle;align=left;verticalAlign=bottom;rounded=0;entryX=1;entryY=0.5;entryDx=0;entryDy=0;exitX=0;exitY=0.5;exitDx=0;exitDy=0;" edge="1" parent="WIyWlLk6GJQsqaUBKTNV-1" source="OOC9lpMJYUZbqOaw8XCj-24" target="zkfFHV4jXpPFQw0GAbJ--13">
          <mxGeometry relative="1" as="geometry">
            <mxPoint x="390" y="524" as="sourcePoint" />
            <mxPoint x="590" y="534" as="targetPoint" />
            <mxPoint as="offset" />
          </mxGeometry>
        </mxCell>
        <mxCell id="OOC9lpMJYUZbqOaw8XCj-37" value="1" style="endArrow=open;html=1;endSize=12;startArrow=diamondThin;startSize=14;startFill=1;edgeStyle=orthogonalEdgeStyle;align=left;verticalAlign=bottom;rounded=0;exitX=0;exitY=0.5;exitDx=0;exitDy=0;entryX=0;entryY=0.25;entryDx=0;entryDy=0;" edge="1" parent="WIyWlLk6GJQsqaUBKTNV-1" source="zkfFHV4jXpPFQw0GAbJ--7" target="OOC9lpMJYUZbqOaw8XCj-5">
          <mxGeometry x="-0.7891" relative="1" as="geometry">
            <mxPoint x="390" y="300" as="sourcePoint" />
            <mxPoint x="20" y="380" as="targetPoint" />
            <Array as="points">
              <mxPoint x="50" y="219" />
              <mxPoint x="50" y="394" />
              <mxPoint x="80" y="394" />
            </Array>
            <mxPoint as="offset" />
          </mxGeometry>
        </mxCell>
        <mxCell id="J0oaYAPU_-L1v4bQVUA5-5" value="ActionMirrorElement" style="swimlane;fontStyle=1;align=center;verticalAlign=top;childLayout=stackLayout;horizontal=1;startSize=26;horizontalStack=0;resizeParent=1;resizeLast=0;collapsible=1;marginBottom=0;rounded=0;shadow=0;strokeWidth=1;" vertex="1" collapsed="1" parent="WIyWlLk6GJQsqaUBKTNV-1">
          <mxGeometry x="590" y="10" width="200" height="26" as="geometry">
            <mxRectangle x="560" y="120" width="160" height="90" as="alternateBounds" />
          </mxGeometry>
        </mxCell>
        <mxCell id="J0oaYAPU_-L1v4bQVUA5-6" value="Name" style="text;align=left;verticalAlign=top;spacingLeft=4;spacingRight=4;overflow=hidden;rotatable=0;points=[[0,0.5],[1,0.5]];portConstraint=eastwest;" vertex="1" parent="J0oaYAPU_-L1v4bQVUA5-5">
          <mxGeometry y="26" width="200" height="26" as="geometry" />
        </mxCell>
        <mxCell id="J0oaYAPU_-L1v4bQVUA5-7" value="" style="line;html=1;strokeWidth=1;align=left;verticalAlign=middle;spacingTop=-1;spacingLeft=3;spacingRight=3;rotatable=0;labelPosition=right;points=[];portConstraint=eastwest;" vertex="1" parent="J0oaYAPU_-L1v4bQVUA5-5">
          <mxGeometry y="52" width="200" height="8" as="geometry" />
        </mxCell>
        <mxCell id="J0oaYAPU_-L1v4bQVUA5-8" value="Purchase Parking Pass" style="text;align=left;verticalAlign=top;spacingLeft=4;spacingRight=4;overflow=hidden;rotatable=0;points=[[0,0.5],[1,0.5]];portConstraint=eastwest;" vertex="1" parent="J0oaYAPU_-L1v4bQVUA5-5">
          <mxGeometry y="60" width="200" height="26" as="geometry" />
        </mxCell>
        <mxCell id="J0oaYAPU_-L1v4bQVUA5-9" value="ActionTrimMultiElement" style="swimlane;fontStyle=1;align=center;verticalAlign=top;childLayout=stackLayout;horizontal=1;startSize=26;horizontalStack=0;resizeParent=1;resizeLast=0;collapsible=1;marginBottom=0;rounded=0;shadow=0;strokeWidth=1;" vertex="1" collapsed="1" parent="WIyWlLk6GJQsqaUBKTNV-1">
          <mxGeometry x="590" y="40" width="200" height="26" as="geometry">
            <mxRectangle x="560" y="120" width="160" height="90" as="alternateBounds" />
          </mxGeometry>
        </mxCell>
        <mxCell id="J0oaYAPU_-L1v4bQVUA5-10" value="Name" style="text;align=left;verticalAlign=top;spacingLeft=4;spacingRight=4;overflow=hidden;rotatable=0;points=[[0,0.5],[1,0.5]];portConstraint=eastwest;" vertex="1" parent="J0oaYAPU_-L1v4bQVUA5-9">
          <mxGeometry y="26" width="200" height="26" as="geometry" />
        </mxCell>
        <mxCell id="J0oaYAPU_-L1v4bQVUA5-11" value="" style="line;html=1;strokeWidth=1;align=left;verticalAlign=middle;spacingTop=-1;spacingLeft=3;spacingRight=3;rotatable=0;labelPosition=right;points=[];portConstraint=eastwest;" vertex="1" parent="J0oaYAPU_-L1v4bQVUA5-9">
          <mxGeometry y="52" width="200" height="8" as="geometry" />
        </mxCell>
        <mxCell id="J0oaYAPU_-L1v4bQVUA5-12" value="Purchase Parking Pass" style="text;align=left;verticalAlign=top;spacingLeft=4;spacingRight=4;overflow=hidden;rotatable=0;points=[[0,0.5],[1,0.5]];portConstraint=eastwest;" vertex="1" parent="J0oaYAPU_-L1v4bQVUA5-9">
          <mxGeometry y="60" width="200" height="26" as="geometry" />
        </mxCell>
        <mxCell id="J0oaYAPU_-L1v4bQVUA5-13" value="ActionDrawCurvePick" style="swimlane;fontStyle=1;align=center;verticalAlign=top;childLayout=stackLayout;horizontal=1;startSize=26;horizontalStack=0;resizeParent=1;resizeLast=0;collapsible=1;marginBottom=0;rounded=0;shadow=0;strokeWidth=1;" vertex="1" collapsed="1" parent="WIyWlLk6GJQsqaUBKTNV-1">
          <mxGeometry x="560" y="240" width="200" height="26" as="geometry">
            <mxRectangle x="560" y="120" width="160" height="90" as="alternateBounds" />
          </mxGeometry>
        </mxCell>
        <mxCell id="J0oaYAPU_-L1v4bQVUA5-14" value="Name" style="text;align=left;verticalAlign=top;spacingLeft=4;spacingRight=4;overflow=hidden;rotatable=0;points=[[0,0.5],[1,0.5]];portConstraint=eastwest;" vertex="1" parent="J0oaYAPU_-L1v4bQVUA5-13">
          <mxGeometry y="26" width="200" height="26" as="geometry" />
        </mxCell>
        <mxCell id="J0oaYAPU_-L1v4bQVUA5-15" value="" style="line;html=1;strokeWidth=1;align=left;verticalAlign=middle;spacingTop=-1;spacingLeft=3;spacingRight=3;rotatable=0;labelPosition=right;points=[];portConstraint=eastwest;" vertex="1" parent="J0oaYAPU_-L1v4bQVUA5-13">
          <mxGeometry y="52" width="200" height="8" as="geometry" />
        </mxCell>
        <mxCell id="J0oaYAPU_-L1v4bQVUA5-16" value="Purchase Parking Pass" style="text;align=left;verticalAlign=top;spacingLeft=4;spacingRight=4;overflow=hidden;rotatable=0;points=[[0,0.5],[1,0.5]];portConstraint=eastwest;" vertex="1" parent="J0oaYAPU_-L1v4bQVUA5-13">
          <mxGeometry y="60" width="200" height="26" as="geometry" />
        </mxCell>
        <mxCell id="J0oaYAPU_-L1v4bQVUA5-17" value="ActionAlignment" style="swimlane;fontStyle=1;align=center;verticalAlign=top;childLayout=stackLayout;horizontal=1;startSize=26;horizontalStack=0;resizeParent=1;resizeLast=0;collapsible=1;marginBottom=0;rounded=0;shadow=0;strokeWidth=1;" vertex="1" collapsed="1" parent="WIyWlLk6GJQsqaUBKTNV-1">
          <mxGeometry x="560" y="200" width="200" height="26" as="geometry">
            <mxRectangle x="560" y="120" width="160" height="90" as="alternateBounds" />
          </mxGeometry>
        </mxCell>
        <mxCell id="J0oaYAPU_-L1v4bQVUA5-18" value="Name" style="text;align=left;verticalAlign=top;spacingLeft=4;spacingRight=4;overflow=hidden;rotatable=0;points=[[0,0.5],[1,0.5]];portConstraint=eastwest;" vertex="1" parent="J0oaYAPU_-L1v4bQVUA5-17">
          <mxGeometry y="26" width="200" height="26" as="geometry" />
        </mxCell>
        <mxCell id="J0oaYAPU_-L1v4bQVUA5-19" value="" style="line;html=1;strokeWidth=1;align=left;verticalAlign=middle;spacingTop=-1;spacingLeft=3;spacingRight=3;rotatable=0;labelPosition=right;points=[];portConstraint=eastwest;" vertex="1" parent="J0oaYAPU_-L1v4bQVUA5-17">
          <mxGeometry y="52" width="200" height="8" as="geometry" />
        </mxCell>
        <mxCell id="J0oaYAPU_-L1v4bQVUA5-20" value="Purchase Parking Pass" style="text;align=left;verticalAlign=top;spacingLeft=4;spacingRight=4;overflow=hidden;rotatable=0;points=[[0,0.5],[1,0.5]];portConstraint=eastwest;" vertex="1" parent="J0oaYAPU_-L1v4bQVUA5-17">
          <mxGeometry y="60" width="200" height="26" as="geometry" />
        </mxCell>
        <mxCell id="J0oaYAPU_-L1v4bQVUA5-21" value="" style="endArrow=open;endFill=1;endSize=12;html=1;rounded=0;exitX=0;exitY=0.5;exitDx=0;exitDy=0;" edge="1" parent="WIyWlLk6GJQsqaUBKTNV-1" source="J0oaYAPU_-L1v4bQVUA5-17">
          <mxGeometry width="160" relative="1" as="geometry">
            <mxPoint x="450" y="80" as="sourcePoint" />
            <mxPoint x="480" y="193" as="targetPoint" />
            <Array as="points">
              <mxPoint x="510" y="213" />
              <mxPoint x="510" y="193" />
            </Array>
          </mxGeometry>
        </mxCell>
        <mxCell id="J0oaYAPU_-L1v4bQVUA5-22" value="" style="endArrow=open;endFill=1;endSize=12;html=1;rounded=0;exitX=0;exitY=0.5;exitDx=0;exitDy=0;" edge="1" parent="WIyWlLk6GJQsqaUBKTNV-1" source="J0oaYAPU_-L1v4bQVUA5-9">
          <mxGeometry width="160" relative="1" as="geometry">
            <mxPoint x="560" y="133" as="sourcePoint" />
            <mxPoint x="480" y="193" as="targetPoint" />
            <Array as="points">
              <mxPoint x="510" y="173" />
              <mxPoint x="510" y="193" />
            </Array>
          </mxGeometry>
        </mxCell>
        <mxCell id="J0oaYAPU_-L1v4bQVUA5-23" value="" style="endArrow=open;endFill=1;endSize=12;html=1;rounded=0;exitX=0;exitY=0.5;exitDx=0;exitDy=0;" edge="1" parent="WIyWlLk6GJQsqaUBKTNV-1" source="J0oaYAPU_-L1v4bQVUA5-5">
          <mxGeometry width="160" relative="1" as="geometry">
            <mxPoint x="450" y="80" as="sourcePoint" />
            <mxPoint x="480" y="193" as="targetPoint" />
            <Array as="points">
              <mxPoint x="510" y="133" />
              <mxPoint x="510" y="193" />
            </Array>
          </mxGeometry>
        </mxCell>
        <mxCell id="J0oaYAPU_-L1v4bQVUA5-24" value="" style="endArrow=open;endFill=1;endSize=12;html=1;rounded=0;exitX=0;exitY=0.5;exitDx=0;exitDy=0;" edge="1" parent="WIyWlLk6GJQsqaUBKTNV-1" source="J0oaYAPU_-L1v4bQVUA5-13">
          <mxGeometry width="160" relative="1" as="geometry">
            <mxPoint x="450" y="80" as="sourcePoint" />
            <mxPoint x="480" y="193" as="targetPoint" />
            <Array as="points">
              <mxPoint x="510" y="253" />
              <mxPoint x="510" y="193" />
            </Array>
          </mxGeometry>
        </mxCell>
        <mxCell id="icjPGRQjOjk6tpm4ZDXu-10" value="IPickPostProcessor" style="swimlane;fontStyle=3;align=center;verticalAlign=top;childLayout=stackLayout;horizontal=1;startSize=26;horizontalStack=0;resizeParent=1;resizeLast=0;collapsible=1;marginBottom=0;rounded=0;shadow=0;strokeWidth=1;" vertex="1" collapsed="1" parent="WIyWlLk6GJQsqaUBKTNV-1">
          <mxGeometry x="1149.94" y="523" width="170" height="26" as="geometry">
            <mxRectangle x="330" y="360" width="160" height="70" as="alternateBounds" />
          </mxGeometry>
        </mxCell>
        <mxCell id="icjPGRQjOjk6tpm4ZDXu-11" value="Salary" style="text;align=left;verticalAlign=top;spacingLeft=4;spacingRight=4;overflow=hidden;rotatable=0;points=[[0,0.5],[1,0.5]];portConstraint=eastwest;" vertex="1" parent="icjPGRQjOjk6tpm4ZDXu-10">
          <mxGeometry y="26" width="170" height="26" as="geometry" />
        </mxCell>
        <mxCell id="icjPGRQjOjk6tpm4ZDXu-12" value="" style="line;html=1;strokeWidth=1;align=left;verticalAlign=middle;spacingTop=-1;spacingLeft=3;spacingRight=3;rotatable=0;labelPosition=right;points=[];portConstraint=eastwest;" vertex="1" parent="icjPGRQjOjk6tpm4ZDXu-10">
          <mxGeometry y="52" width="170" height="8" as="geometry" />
        </mxCell>
        <mxCell id="icjPGRQjOjk6tpm4ZDXu-13" value="IPickPostProcessManager" style="swimlane;fontStyle=3;align=center;verticalAlign=top;childLayout=stackLayout;horizontal=1;startSize=26;horizontalStack=0;resizeParent=1;resizeLast=0;collapsible=1;marginBottom=0;rounded=0;shadow=0;strokeWidth=1;" vertex="1" collapsed="1" parent="WIyWlLk6GJQsqaUBKTNV-1">
          <mxGeometry x="1409.94" y="471" width="260" height="26" as="geometry">
            <mxRectangle x="570" y="310" width="160" height="216" as="alternateBounds" />
          </mxGeometry>
        </mxCell>
        <mxCell id="icjPGRQjOjk6tpm4ZDXu-14" value="Street" style="text;align=left;verticalAlign=top;spacingLeft=4;spacingRight=4;overflow=hidden;rotatable=0;points=[[0,0.5],[1,0.5]];portConstraint=eastwest;" vertex="1" parent="icjPGRQjOjk6tpm4ZDXu-13">
          <mxGeometry y="26" width="260" height="26" as="geometry" />
        </mxCell>
        <mxCell id="icjPGRQjOjk6tpm4ZDXu-15" value="Country" style="text;align=left;verticalAlign=top;spacingLeft=4;spacingRight=4;overflow=hidden;rotatable=0;points=[[0,0.5],[1,0.5]];portConstraint=eastwest;rounded=0;shadow=0;html=0;" vertex="1" parent="icjPGRQjOjk6tpm4ZDXu-13">
          <mxGeometry y="52" width="260" height="26" as="geometry" />
        </mxCell>
        <mxCell id="icjPGRQjOjk6tpm4ZDXu-16" value="" style="line;html=1;strokeWidth=1;align=left;verticalAlign=middle;spacingTop=-1;spacingLeft=3;spacingRight=3;rotatable=0;labelPosition=right;points=[];portConstraint=eastwest;" vertex="1" parent="icjPGRQjOjk6tpm4ZDXu-13">
          <mxGeometry y="78" width="260" height="8" as="geometry" />
        </mxCell>
        <mxCell id="icjPGRQjOjk6tpm4ZDXu-17" value="Validate" style="text;align=left;verticalAlign=top;spacingLeft=4;spacingRight=4;overflow=hidden;rotatable=0;points=[[0,0.5],[1,0.5]];portConstraint=eastwest;" vertex="1" parent="icjPGRQjOjk6tpm4ZDXu-13">
          <mxGeometry y="86" width="260" height="26" as="geometry" />
        </mxCell>
        <mxCell id="icjPGRQjOjk6tpm4ZDXu-18" value="Output As Label" style="text;align=left;verticalAlign=top;spacingLeft=4;spacingRight=4;overflow=hidden;rotatable=0;points=[[0,0.5],[1,0.5]];portConstraint=eastwest;" vertex="1" parent="icjPGRQjOjk6tpm4ZDXu-13">
          <mxGeometry y="112" width="260" height="26" as="geometry" />
        </mxCell>
        <mxCell id="icjPGRQjOjk6tpm4ZDXu-20" value="IPickEventHandler" style="swimlane;fontStyle=3;align=center;verticalAlign=top;childLayout=stackLayout;horizontal=1;startSize=26;horizontalStack=0;resizeParent=1;resizeParentMax=0;resizeLast=0;collapsible=1;marginBottom=0;" vertex="1" collapsed="1" parent="WIyWlLk6GJQsqaUBKTNV-1">
          <mxGeometry x="1164.94" y="393" width="140" height="26" as="geometry">
            <mxRectangle x="180" y="450" width="160" height="86" as="alternateBounds" />
          </mxGeometry>
        </mxCell>
        <mxCell id="icjPGRQjOjk6tpm4ZDXu-21" value="+ field: type" style="text;strokeColor=none;fillColor=none;align=left;verticalAlign=top;spacingLeft=4;spacingRight=4;overflow=hidden;rotatable=0;points=[[0,0.5],[1,0.5]];portConstraint=eastwest;" vertex="1" parent="icjPGRQjOjk6tpm4ZDXu-20">
          <mxGeometry y="26" width="140" height="26" as="geometry" />
        </mxCell>
        <mxCell id="icjPGRQjOjk6tpm4ZDXu-22" value="" style="line;strokeWidth=1;fillColor=none;align=left;verticalAlign=middle;spacingTop=-1;spacingLeft=3;spacingRight=3;rotatable=0;labelPosition=right;points=[];portConstraint=eastwest;" vertex="1" parent="icjPGRQjOjk6tpm4ZDXu-20">
          <mxGeometry y="52" width="140" height="8" as="geometry" />
        </mxCell>
        <mxCell id="icjPGRQjOjk6tpm4ZDXu-23" value="+ method(type): type" style="text;strokeColor=none;fillColor=none;align=left;verticalAlign=top;spacingLeft=4;spacingRight=4;overflow=hidden;rotatable=0;points=[[0,0.5],[1,0.5]];portConstraint=eastwest;" vertex="1" parent="icjPGRQjOjk6tpm4ZDXu-20">
          <mxGeometry y="60" width="140" height="26" as="geometry" />
        </mxCell>
        <mxCell id="icjPGRQjOjk6tpm4ZDXu-24" value="BmCommonPickPostProcessEventHandler" style="swimlane;fontStyle=1;align=center;verticalAlign=top;childLayout=stackLayout;horizontal=1;startSize=26;horizontalStack=0;resizeParent=1;resizeLast=0;collapsible=1;marginBottom=0;rounded=0;shadow=0;strokeWidth=1;fillColor=#dae8fc;strokeColor=#6c8ebf;" vertex="1" parent="WIyWlLk6GJQsqaUBKTNV-1">
          <mxGeometry x="1089.94" y="443" width="290" height="54" as="geometry">
            <mxRectangle x="570" y="206" width="290" height="26" as="alternateBounds" />
          </mxGeometry>
        </mxCell>
        <mxCell id="icjPGRQjOjk6tpm4ZDXu-25" value="+ On(IPickEventArgs* pArgs) : void" style="text;align=left;verticalAlign=top;spacingLeft=4;spacingRight=4;overflow=hidden;rotatable=0;points=[[0,0.5],[1,0.5]];portConstraint=eastwest;" vertex="1" parent="icjPGRQjOjk6tpm4ZDXu-24">
          <mxGeometry y="26" width="290" height="26" as="geometry" />
        </mxCell>
        <mxCell id="icjPGRQjOjk6tpm4ZDXu-26" value="" style="endArrow=block;dashed=1;endFill=0;endSize=12;html=1;rounded=0;entryX=0.5;entryY=1;entryDx=0;entryDy=0;exitX=0.5;exitY=0;exitDx=0;exitDy=0;" edge="1" parent="WIyWlLk6GJQsqaUBKTNV-1" source="icjPGRQjOjk6tpm4ZDXu-24" target="icjPGRQjOjk6tpm4ZDXu-20">
          <mxGeometry width="160" relative="1" as="geometry">
            <mxPoint x="1010.94" y="403" as="sourcePoint" />
            <mxPoint x="1170.94" y="403" as="targetPoint" />
          </mxGeometry>
        </mxCell>
        <mxCell id="icjPGRQjOjk6tpm4ZDXu-27" value="OpeningPickPostProcessor" style="swimlane;fontStyle=1;align=center;verticalAlign=top;childLayout=stackLayout;horizontal=1;startSize=26;horizontalStack=0;resizeParent=1;resizeLast=0;collapsible=1;marginBottom=0;rounded=0;shadow=0;strokeWidth=1;" vertex="1" collapsed="1" parent="WIyWlLk6GJQsqaUBKTNV-1">
          <mxGeometry x="1129.94" y="593" width="210" height="26" as="geometry">
            <mxRectangle x="330" y="360" width="160" height="70" as="alternateBounds" />
          </mxGeometry>
        </mxCell>
        <mxCell id="icjPGRQjOjk6tpm4ZDXu-28" value="Salary" style="text;align=left;verticalAlign=top;spacingLeft=4;spacingRight=4;overflow=hidden;rotatable=0;points=[[0,0.5],[1,0.5]];portConstraint=eastwest;" vertex="1" parent="icjPGRQjOjk6tpm4ZDXu-27">
          <mxGeometry y="26" width="210" height="26" as="geometry" />
        </mxCell>
        <mxCell id="icjPGRQjOjk6tpm4ZDXu-29" value="" style="line;html=1;strokeWidth=1;align=left;verticalAlign=middle;spacingTop=-1;spacingLeft=3;spacingRight=3;rotatable=0;labelPosition=right;points=[];portConstraint=eastwest;" vertex="1" parent="icjPGRQjOjk6tpm4ZDXu-27">
          <mxGeometry y="52" width="210" height="8" as="geometry" />
        </mxCell>
        <mxCell id="icjPGRQjOjk6tpm4ZDXu-30" value="CadCurvePickPostProcessor" style="swimlane;fontStyle=1;align=center;verticalAlign=top;childLayout=stackLayout;horizontal=1;startSize=26;horizontalStack=0;resizeParent=1;resizeLast=0;collapsible=1;marginBottom=0;rounded=0;shadow=0;strokeWidth=1;fillColor=#dae8fc;strokeColor=#6c8ebf;" vertex="1" collapsed="1" parent="WIyWlLk6GJQsqaUBKTNV-1">
          <mxGeometry x="1129.94" y="633" width="210" height="26" as="geometry">
            <mxRectangle x="330" y="360" width="160" height="70" as="alternateBounds" />
          </mxGeometry>
        </mxCell>
        <mxCell id="icjPGRQjOjk6tpm4ZDXu-31" value="Salary" style="text;align=left;verticalAlign=top;spacingLeft=4;spacingRight=4;overflow=hidden;rotatable=0;points=[[0,0.5],[1,0.5]];portConstraint=eastwest;" vertex="1" parent="icjPGRQjOjk6tpm4ZDXu-30">
          <mxGeometry y="26" width="210" height="26" as="geometry" />
        </mxCell>
        <mxCell id="icjPGRQjOjk6tpm4ZDXu-32" value="" style="line;html=1;strokeWidth=1;align=left;verticalAlign=middle;spacingTop=-1;spacingLeft=3;spacingRight=3;rotatable=0;labelPosition=right;points=[];portConstraint=eastwest;" vertex="1" parent="icjPGRQjOjk6tpm4ZDXu-30">
          <mxGeometry y="52" width="210" height="8" as="geometry" />
        </mxCell>
        <mxCell id="icjPGRQjOjk6tpm4ZDXu-33" value="" style="endArrow=block;dashed=1;endFill=0;endSize=12;html=1;rounded=0;entryX=0.5;entryY=1;entryDx=0;entryDy=0;exitX=0.5;exitY=0;exitDx=0;exitDy=0;" edge="1" parent="WIyWlLk6GJQsqaUBKTNV-1" source="icjPGRQjOjk6tpm4ZDXu-27" target="icjPGRQjOjk6tpm4ZDXu-10">
          <mxGeometry width="160" relative="1" as="geometry">
            <mxPoint x="969.94" y="583" as="sourcePoint" />
            <mxPoint x="1129.94" y="583" as="targetPoint" />
          </mxGeometry>
        </mxCell>
        <mxCell id="icjPGRQjOjk6tpm4ZDXu-34" value="" style="endArrow=block;dashed=1;endFill=0;endSize=12;html=1;rounded=0;entryX=0.5;entryY=1;entryDx=0;entryDy=0;exitX=0;exitY=0.5;exitDx=0;exitDy=0;" edge="1" parent="WIyWlLk6GJQsqaUBKTNV-1" source="icjPGRQjOjk6tpm4ZDXu-30" target="icjPGRQjOjk6tpm4ZDXu-10">
          <mxGeometry width="160" relative="1" as="geometry">
            <mxPoint x="899.94" y="593" as="sourcePoint" />
            <mxPoint x="1239.94" y="553" as="targetPoint" />
            <Array as="points">
              <mxPoint x="1109.94" y="646" />
              <mxPoint x="1109.94" y="577" />
              <mxPoint x="1234.94" y="577" />
            </Array>
          </mxGeometry>
        </mxCell>
        <mxCell id="icjPGRQjOjk6tpm4ZDXu-35" value="BmCommonPickPostProcessManager" style="swimlane;fontStyle=1;align=center;verticalAlign=top;childLayout=stackLayout;horizontal=1;startSize=26;horizontalStack=0;resizeParent=1;resizeLast=0;collapsible=1;marginBottom=0;rounded=0;shadow=0;strokeWidth=1;fillColor=#dae8fc;strokeColor=#6c8ebf;" vertex="1" collapsed="1" parent="WIyWlLk6GJQsqaUBKTNV-1">
          <mxGeometry x="1409.94" y="523" width="260" height="26" as="geometry">
            <mxRectangle x="570" y="310" width="160" height="216" as="alternateBounds" />
          </mxGeometry>
        </mxCell>
        <mxCell id="icjPGRQjOjk6tpm4ZDXu-36" value="Street" style="text;align=left;verticalAlign=top;spacingLeft=4;spacingRight=4;overflow=hidden;rotatable=0;points=[[0,0.5],[1,0.5]];portConstraint=eastwest;" vertex="1" parent="icjPGRQjOjk6tpm4ZDXu-35">
          <mxGeometry y="26" width="260" height="26" as="geometry" />
        </mxCell>
        <mxCell id="icjPGRQjOjk6tpm4ZDXu-37" value="Country" style="text;align=left;verticalAlign=top;spacingLeft=4;spacingRight=4;overflow=hidden;rotatable=0;points=[[0,0.5],[1,0.5]];portConstraint=eastwest;rounded=0;shadow=0;html=0;" vertex="1" parent="icjPGRQjOjk6tpm4ZDXu-35">
          <mxGeometry y="52" width="260" height="26" as="geometry" />
        </mxCell>
        <mxCell id="icjPGRQjOjk6tpm4ZDXu-38" value="" style="line;html=1;strokeWidth=1;align=left;verticalAlign=middle;spacingTop=-1;spacingLeft=3;spacingRight=3;rotatable=0;labelPosition=right;points=[];portConstraint=eastwest;" vertex="1" parent="icjPGRQjOjk6tpm4ZDXu-35">
          <mxGeometry y="78" width="260" height="8" as="geometry" />
        </mxCell>
        <mxCell id="icjPGRQjOjk6tpm4ZDXu-39" value="Validate" style="text;align=left;verticalAlign=top;spacingLeft=4;spacingRight=4;overflow=hidden;rotatable=0;points=[[0,0.5],[1,0.5]];portConstraint=eastwest;" vertex="1" parent="icjPGRQjOjk6tpm4ZDXu-35">
          <mxGeometry y="86" width="260" height="26" as="geometry" />
        </mxCell>
        <mxCell id="icjPGRQjOjk6tpm4ZDXu-40" value="Output As Label" style="text;align=left;verticalAlign=top;spacingLeft=4;spacingRight=4;overflow=hidden;rotatable=0;points=[[0,0.5],[1,0.5]];portConstraint=eastwest;" vertex="1" parent="icjPGRQjOjk6tpm4ZDXu-35">
          <mxGeometry y="112" width="260" height="26" as="geometry" />
        </mxCell>
        <mxCell id="icjPGRQjOjk6tpm4ZDXu-41" value="" style="endArrow=block;dashed=1;endFill=0;endSize=12;html=1;rounded=0;entryX=0.5;entryY=1;entryDx=0;entryDy=0;exitX=0.5;exitY=0;exitDx=0;exitDy=0;" edge="1" parent="WIyWlLk6GJQsqaUBKTNV-1" source="icjPGRQjOjk6tpm4ZDXu-35" target="icjPGRQjOjk6tpm4ZDXu-13">
          <mxGeometry width="160" relative="1" as="geometry">
            <mxPoint x="1489.94" y="613" as="sourcePoint" />
            <mxPoint x="1649.94" y="613" as="targetPoint" />
          </mxGeometry>
        </mxCell>
        <mxCell id="icjPGRQjOjk6tpm4ZDXu-42" value="" style="endArrow=open;endFill=1;endSize=12;html=1;rounded=0;entryX=0;entryY=0.5;entryDx=0;entryDy=0;" edge="1" parent="WIyWlLk6GJQsqaUBKTNV-1" target="icjPGRQjOjk6tpm4ZDXu-13">
          <mxGeometry width="160" relative="1" as="geometry">
            <mxPoint x="1379.94" y="484" as="sourcePoint" />
            <mxPoint x="1269.94" y="517" as="targetPoint" />
          </mxGeometry>
        </mxCell>
        <mxCell id="icjPGRQjOjk6tpm4ZDXu-43" value="n" style="endArrow=open;html=1;endSize=12;startArrow=diamondThin;startSize=14;startFill=0;edgeStyle=orthogonalEdgeStyle;align=left;verticalAlign=bottom;rounded=0;entryX=1;entryY=0.5;entryDx=0;entryDy=0;exitX=0;exitY=0.5;exitDx=0;exitDy=0;" edge="1" parent="WIyWlLk6GJQsqaUBKTNV-1" source="icjPGRQjOjk6tpm4ZDXu-35" target="icjPGRQjOjk6tpm4ZDXu-10">
          <mxGeometry relative="1" as="geometry">
            <mxPoint x="1399.94" y="587" as="sourcePoint" />
            <mxPoint x="1599.94" y="597" as="targetPoint" />
            <mxPoint as="offset" />
          </mxGeometry>
        </mxCell>
        <mxCell id="icjPGRQjOjk6tpm4ZDXu-44" value="1" style="endArrow=open;html=1;endSize=12;startArrow=diamondThin;startSize=14;startFill=1;edgeStyle=orthogonalEdgeStyle;align=left;verticalAlign=bottom;rounded=0;entryX=0;entryY=0.25;entryDx=0;entryDy=0;exitX=0;exitY=0.5;exitDx=0;exitDy=0;" edge="1" parent="WIyWlLk6GJQsqaUBKTNV-1" source="icjPGRQjOjk6tpm4ZDXu-49" target="icjPGRQjOjk6tpm4ZDXu-24">
          <mxGeometry x="-0.7898" relative="1" as="geometry">
            <mxPoint x="1060" y="320" as="sourcePoint" />
            <mxPoint x="1029.94" y="443" as="targetPoint" />
            <Array as="points">
              <mxPoint x="1060" y="324" />
              <mxPoint x="1060" y="456" />
            </Array>
            <mxPoint as="offset" />
          </mxGeometry>
        </mxCell>
        <mxCell id="icjPGRQjOjk6tpm4ZDXu-45" value="ActionDrawCurvePick" style="swimlane;fontStyle=1;align=center;verticalAlign=top;childLayout=stackLayout;horizontal=1;startSize=26;horizontalStack=0;resizeParent=1;resizeLast=0;collapsible=1;marginBottom=0;rounded=0;shadow=0;strokeWidth=1;fillColor=#fff2cc;strokeColor=#d6b656;" vertex="1" collapsed="1" parent="WIyWlLk6GJQsqaUBKTNV-1">
          <mxGeometry x="1134.94" y="349" width="200" height="26" as="geometry">
            <mxRectangle x="560" y="120" width="160" height="90" as="alternateBounds" />
          </mxGeometry>
        </mxCell>
        <mxCell id="icjPGRQjOjk6tpm4ZDXu-46" value="Name" style="text;align=left;verticalAlign=top;spacingLeft=4;spacingRight=4;overflow=hidden;rotatable=0;points=[[0,0.5],[1,0.5]];portConstraint=eastwest;" vertex="1" parent="icjPGRQjOjk6tpm4ZDXu-45">
          <mxGeometry y="26" width="200" height="26" as="geometry" />
        </mxCell>
        <mxCell id="icjPGRQjOjk6tpm4ZDXu-47" value="" style="line;html=1;strokeWidth=1;align=left;verticalAlign=middle;spacingTop=-1;spacingLeft=3;spacingRight=3;rotatable=0;labelPosition=right;points=[];portConstraint=eastwest;" vertex="1" parent="icjPGRQjOjk6tpm4ZDXu-45">
          <mxGeometry y="52" width="200" height="8" as="geometry" />
        </mxCell>
        <mxCell id="icjPGRQjOjk6tpm4ZDXu-48" value="Purchase Parking Pass" style="text;align=left;verticalAlign=top;spacingLeft=4;spacingRight=4;overflow=hidden;rotatable=0;points=[[0,0.5],[1,0.5]];portConstraint=eastwest;" vertex="1" parent="icjPGRQjOjk6tpm4ZDXu-45">
          <mxGeometry y="60" width="200" height="26" as="geometry" />
        </mxCell>
        <mxCell id="icjPGRQjOjk6tpm4ZDXu-49" value="ActionAlignment" style="swimlane;fontStyle=1;align=center;verticalAlign=top;childLayout=stackLayout;horizontal=1;startSize=26;horizontalStack=0;resizeParent=1;resizeLast=0;collapsible=1;marginBottom=0;rounded=0;shadow=0;strokeWidth=1;" vertex="1" collapsed="1" parent="WIyWlLk6GJQsqaUBKTNV-1">
          <mxGeometry x="1134.94" y="311" width="200" height="26" as="geometry">
            <mxRectangle x="560" y="120" width="160" height="90" as="alternateBounds" />
          </mxGeometry>
        </mxCell>
        <mxCell id="icjPGRQjOjk6tpm4ZDXu-50" value="Name" style="text;align=left;verticalAlign=top;spacingLeft=4;spacingRight=4;overflow=hidden;rotatable=0;points=[[0,0.5],[1,0.5]];portConstraint=eastwest;" vertex="1" parent="icjPGRQjOjk6tpm4ZDXu-49">
          <mxGeometry y="26" width="200" height="26" as="geometry" />
        </mxCell>
        <mxCell id="icjPGRQjOjk6tpm4ZDXu-51" value="" style="line;html=1;strokeWidth=1;align=left;verticalAlign=middle;spacingTop=-1;spacingLeft=3;spacingRight=3;rotatable=0;labelPosition=right;points=[];portConstraint=eastwest;" vertex="1" parent="icjPGRQjOjk6tpm4ZDXu-49">
          <mxGeometry y="52" width="200" height="8" as="geometry" />
        </mxCell>
        <mxCell id="icjPGRQjOjk6tpm4ZDXu-52" value="Purchase Parking Pass" style="text;align=left;verticalAlign=top;spacingLeft=4;spacingRight=4;overflow=hidden;rotatable=0;points=[[0,0.5],[1,0.5]];portConstraint=eastwest;" vertex="1" parent="icjPGRQjOjk6tpm4ZDXu-49">
          <mxGeometry y="60" width="200" height="26" as="geometry" />
        </mxCell>
        <mxCell id="icjPGRQjOjk6tpm4ZDXu-55" value="1" style="endArrow=open;html=1;endSize=12;startArrow=diamondThin;startSize=14;startFill=1;edgeStyle=orthogonalEdgeStyle;align=left;verticalAlign=bottom;rounded=0;entryX=0;entryY=0.25;entryDx=0;entryDy=0;exitX=0;exitY=0.5;exitDx=0;exitDy=0;" edge="1" parent="WIyWlLk6GJQsqaUBKTNV-1" source="icjPGRQjOjk6tpm4ZDXu-45" target="icjPGRQjOjk6tpm4ZDXu-24">
          <mxGeometry x="-0.7497" relative="1" as="geometry">
            <mxPoint x="1060" y="320" as="sourcePoint" />
            <mxPoint x="1090" y="460" as="targetPoint" />
            <Array as="points">
              <mxPoint x="1060" y="362" />
              <mxPoint x="1060" y="456" />
            </Array>
            <mxPoint as="offset" />
          </mxGeometry>
        </mxCell>
        <mxCell id="icjPGRQjOjk6tpm4ZDXu-56" value="ChainCadCurveOperate" style="swimlane;fontStyle=1;align=center;verticalAlign=top;childLayout=stackLayout;horizontal=1;startSize=26;horizontalStack=0;resizeParent=1;resizeLast=0;collapsible=1;marginBottom=0;rounded=0;shadow=0;strokeWidth=1;fillColor=#dae8fc;strokeColor=#6c8ebf;" vertex="1" collapsed="1" parent="WIyWlLk6GJQsqaUBKTNV-1">
          <mxGeometry x="1409.94" y="633" width="210" height="26" as="geometry">
            <mxRectangle x="1409.94" y="633" width="260.06" height="70" as="alternateBounds" />
          </mxGeometry>
        </mxCell>
        <mxCell id="icjPGRQjOjk6tpm4ZDXu-57" value="Salary" style="text;align=left;verticalAlign=top;spacingLeft=4;spacingRight=4;overflow=hidden;rotatable=0;points=[[0,0.5],[1,0.5]];portConstraint=eastwest;" vertex="1" parent="icjPGRQjOjk6tpm4ZDXu-56">
          <mxGeometry y="26" width="210" height="26" as="geometry" />
        </mxCell>
        <mxCell id="icjPGRQjOjk6tpm4ZDXu-58" value="" style="line;html=1;strokeWidth=1;align=left;verticalAlign=middle;spacingTop=-1;spacingLeft=3;spacingRight=3;rotatable=0;labelPosition=right;points=[];portConstraint=eastwest;" vertex="1" parent="icjPGRQjOjk6tpm4ZDXu-56">
          <mxGeometry y="52" width="210" height="8" as="geometry" />
        </mxCell>
        <mxCell id="icjPGRQjOjk6tpm4ZDXu-59" value="" style="endArrow=open;endFill=1;endSize=12;html=1;rounded=0;exitX=1;exitY=0.5;exitDx=0;exitDy=0;entryX=0;entryY=0.5;entryDx=0;entryDy=0;" edge="1" parent="WIyWlLk6GJQsqaUBKTNV-1" source="icjPGRQjOjk6tpm4ZDXu-30" target="icjPGRQjOjk6tpm4ZDXu-56">
          <mxGeometry width="160" relative="1" as="geometry">
            <mxPoint x="1200" y="680" as="sourcePoint" />
            <mxPoint x="1360" y="660" as="targetPoint" />
          </mxGeometry>
        </mxCell>
      </root>
    </mxGraphModel>
  </diagram>
  <diagram id="dLtSB1IRBkr97bLhCCUL" name="Page-2">
    <mxGraphModel dx="2031" dy="1069" grid="1" gridSize="10" guides="1" tooltips="1" connect="1" arrows="1" fold="1" page="1" pageScale="1" pageWidth="827" pageHeight="1169" math="0" shadow="0">
      <root>
        <mxCell id="0_LXd3zXh57d5PQR54Dv-0" />
        <mxCell id="0_LXd3zXh57d5PQR54Dv-1" parent="0_LXd3zXh57d5PQR54Dv-0" />
        <mxCell id="D6H5FU00CzbuNYimZ6kx-1" value="" style="edgeStyle=orthogonalEdgeStyle;rounded=0;orthogonalLoop=1;jettySize=auto;html=1;" edge="1" parent="0_LXd3zXh57d5PQR54Dv-1" source="vUnv-Rx415G4xqLDOpbj-0" target="D6H5FU00CzbuNYimZ6kx-0">
          <mxGeometry relative="1" as="geometry" />
        </mxCell>
        <mxCell id="vUnv-Rx415G4xqLDOpbj-0" value="ActionDrawCurvePick 内开启 拾取Action" style="rounded=1;whiteSpace=wrap;html=1;" vertex="1" parent="0_LXd3zXh57d5PQR54Dv-1">
          <mxGeometry x="330" y="510" width="210" height="60" as="geometry" />
        </mxCell>
        <mxCell id="D6H5FU00CzbuNYimZ6kx-3" value="" style="edgeStyle=orthogonalEdgeStyle;rounded=0;orthogonalLoop=1;jettySize=auto;html=1;" edge="1" parent="0_LXd3zXh57d5PQR54Dv-1" source="D6H5FU00CzbuNYimZ6kx-0" target="D6H5FU00CzbuNYimZ6kx-2">
          <mxGeometry relative="1" as="geometry" />
        </mxCell>
        <mxCell id="D6H5FU00CzbuNYimZ6kx-0" value="hover到cad线，进入pickposteventhandle" style="whiteSpace=wrap;html=1;rounded=1;" vertex="1" parent="0_LXd3zXh57d5PQR54Dv-1">
          <mxGeometry x="330" y="650" width="210" height="60" as="geometry" />
        </mxCell>
        <mxCell id="D6H5FU00CzbuNYimZ6kx-5" value="" style="edgeStyle=orthogonalEdgeStyle;rounded=0;orthogonalLoop=1;jettySize=auto;html=1;" edge="1" parent="0_LXd3zXh57d5PQR54Dv-1" source="D6H5FU00CzbuNYimZ6kx-2" target="D6H5FU00CzbuNYimZ6kx-4">
          <mxGeometry relative="1" as="geometry" />
        </mxCell>
        <mxCell id="D6H5FU00CzbuNYimZ6kx-2" value="通过CAD线的GNodeRef，拿到CADElement，拿到所有的CAD线和拾取到的CAD线" style="whiteSpace=wrap;html=1;rounded=1;" vertex="1" parent="0_LXd3zXh57d5PQR54Dv-1">
          <mxGeometry x="320" y="790" width="230" height="70" as="geometry" />
        </mxCell>
        <mxCell id="D6H5FU00CzbuNYimZ6kx-7" value="" style="edgeStyle=orthogonalEdgeStyle;rounded=0;orthogonalLoop=1;jettySize=auto;html=1;" edge="1" parent="0_LXd3zXh57d5PQR54Dv-1" source="D6H5FU00CzbuNYimZ6kx-4" target="D6H5FU00CzbuNYimZ6kx-6">
          <mxGeometry relative="1" as="geometry" />
        </mxCell>
        <mxCell id="D6H5FU00CzbuNYimZ6kx-4" value="从所有的CAD线里面筛选同颜色、同图层的CAD线" style="whiteSpace=wrap;html=1;rounded=1;" vertex="1" parent="0_LXd3zXh57d5PQR54Dv-1">
          <mxGeometry x="320" y="945" width="230" height="60" as="geometry" />
        </mxCell>
        <mxCell id="D6H5FU00CzbuNYimZ6kx-9" value="" style="edgeStyle=orthogonalEdgeStyle;rounded=0;orthogonalLoop=1;jettySize=auto;html=1;" edge="1" parent="0_LXd3zXh57d5PQR54Dv-1" source="D6H5FU00CzbuNYimZ6kx-6" target="D6H5FU00CzbuNYimZ6kx-8">
          <mxGeometry relative="1" as="geometry" />
        </mxCell>
        <mxCell id="fgb4fVBcGbOOFZxr0xIn-1" value="" style="edgeStyle=orthogonalEdgeStyle;rounded=0;orthogonalLoop=1;jettySize=auto;html=1;" edge="1" parent="0_LXd3zXh57d5PQR54Dv-1" source="D6H5FU00CzbuNYimZ6kx-6" target="fgb4fVBcGbOOFZxr0xIn-0">
          <mxGeometry relative="1" as="geometry" />
        </mxCell>
        <mxCell id="D6H5FU00CzbuNYimZ6kx-6" value="给过滤后的CAD线建立连接关系" style="whiteSpace=wrap;html=1;rounded=1;" vertex="1" parent="0_LXd3zXh57d5PQR54Dv-1">
          <mxGeometry x="375" y="1085" width="120" height="60" as="geometry" />
        </mxCell>
        <mxCell id="D6H5FU00CzbuNYimZ6kx-11" value="" style="edgeStyle=orthogonalEdgeStyle;rounded=0;orthogonalLoop=1;jettySize=auto;html=1;" edge="1" parent="0_LXd3zXh57d5PQR54Dv-1" source="D6H5FU00CzbuNYimZ6kx-8" target="D6H5FU00CzbuNYimZ6kx-10">
          <mxGeometry relative="1" as="geometry" />
        </mxCell>
        <mxCell id="D6H5FU00CzbuNYimZ6kx-8" value="&lt;div&gt;DFS遍历所有的CAD线，查找到环和非环的所有路径（包含被拾取到的CAD线）&lt;/div&gt;&lt;div&gt;为了提高性能，随DFS递归深度和结果的数目加以控制&lt;br&gt;&lt;/div&gt;" style="whiteSpace=wrap;html=1;rounded=1;align=center;" vertex="1" parent="0_LXd3zXh57d5PQR54Dv-1">
          <mxGeometry x="320" y="1225" width="230" height="85" as="geometry" />
        </mxCell>
        <mxCell id="D6H5FU00CzbuNYimZ6kx-13" value="" style="edgeStyle=orthogonalEdgeStyle;rounded=0;orthogonalLoop=1;jettySize=auto;html=1;" edge="1" parent="0_LXd3zXh57d5PQR54Dv-1" source="D6H5FU00CzbuNYimZ6kx-10" target="D6H5FU00CzbuNYimZ6kx-12">
          <mxGeometry relative="1" as="geometry" />
        </mxCell>
        <mxCell id="D6H5FU00CzbuNYimZ6kx-10" value="&lt;div&gt;路径去重&lt;br&gt;&lt;/div&gt;&lt;div&gt;把指定数目的封闭路径按照面积降序&lt;/div&gt;&lt;div&gt;把指定数目的开放路径按照长度降序&lt;/div&gt;" style="whiteSpace=wrap;html=1;rounded=1;" vertex="1" parent="0_LXd3zXh57d5PQR54Dv-1">
          <mxGeometry x="320" y="1402.5" width="230" height="60" as="geometry" />
        </mxCell>
        <mxCell id="D6H5FU00CzbuNYimZ6kx-12" value="用开放路径和封闭路径的GNode创建GNodeRef，加入拾取候选集" style="whiteSpace=wrap;html=1;rounded=1;" vertex="1" parent="0_LXd3zXh57d5PQR54Dv-1">
          <mxGeometry x="330" y="1542.5" width="210" height="60" as="geometry" />
        </mxCell>
        <mxCell id="D6H5FU00CzbuNYimZ6kx-16" value="" style="edgeStyle=orthogonalEdgeStyle;rounded=0;orthogonalLoop=1;jettySize=auto;html=1;" edge="1" parent="0_LXd3zXh57d5PQR54Dv-1" source="D6H5FU00CzbuNYimZ6kx-14" target="D6H5FU00CzbuNYimZ6kx-15">
          <mxGeometry relative="1" as="geometry" />
        </mxCell>
        <mxCell id="D6H5FU00CzbuNYimZ6kx-14" value="点击鼠标后 ActionDrawCurvePick::OnCurvePickFinished" style="rounded=1;whiteSpace=wrap;html=1;" vertex="1" parent="0_LXd3zXh57d5PQR54Dv-1">
          <mxGeometry x="920" y="790" width="280" height="60" as="geometry" />
        </mxCell>
        <mxCell id="D6H5FU00CzbuNYimZ6kx-18" value="" style="edgeStyle=orthogonalEdgeStyle;rounded=0;orthogonalLoop=1;jettySize=auto;html=1;" edge="1" parent="0_LXd3zXh57d5PQR54Dv-1" source="D6H5FU00CzbuNYimZ6kx-15" target="D6H5FU00CzbuNYimZ6kx-17">
          <mxGeometry relative="1" as="geometry" />
        </mxCell>
        <mxCell id="D6H5FU00CzbuNYimZ6kx-15" value="获取拾取到的GNodeRef的vector" style="whiteSpace=wrap;html=1;rounded=1;" vertex="1" parent="0_LXd3zXh57d5PQR54Dv-1">
          <mxGeometry x="1000" y="930" width="120" height="60" as="geometry" />
        </mxCell>
        <mxCell id="D6H5FU00CzbuNYimZ6kx-20" value="" style="edgeStyle=orthogonalEdgeStyle;rounded=0;orthogonalLoop=1;jettySize=auto;html=1;" edge="1" parent="0_LXd3zXh57d5PQR54Dv-1" source="D6H5FU00CzbuNYimZ6kx-17" target="D6H5FU00CzbuNYimZ6kx-19">
          <mxGeometry relative="1" as="geometry" />
        </mxCell>
        <mxCell id="D6H5FU00CzbuNYimZ6kx-17" value="vector size大于1，则证明需要创建多条模型线" style="whiteSpace=wrap;html=1;rounded=1;" vertex="1" parent="0_LXd3zXh57d5PQR54Dv-1">
          <mxGeometry x="1000" y="1070" width="120" height="60" as="geometry" />
        </mxCell>
        <mxCell id="D6H5FU00CzbuNYimZ6kx-19" value="创建多条模型线" style="whiteSpace=wrap;html=1;rounded=1;" vertex="1" parent="0_LXd3zXh57d5PQR54Dv-1">
          <mxGeometry x="1000" y="1210" width="120" height="60" as="geometry" />
        </mxCell>
        <mxCell id="fgb4fVBcGbOOFZxr0xIn-0" value="&lt;div&gt;连接关系是指：&lt;/div&gt;&lt;div&gt;两条CAD线有且仅有一个端点距离小于30mm&lt;br&gt;&lt;/div&gt;" style="shape=hexagon;perimeter=hexagonPerimeter2;whiteSpace=wrap;html=1;fixedSize=1;rounded=1;" vertex="1" parent="0_LXd3zXh57d5PQR54Dv-1">
          <mxGeometry x="575" y="1075" width="315" height="80" as="geometry" />
        </mxCell>
      </root>
    </mxGraphModel>
  </diagram>
</mxfile>
